Coordinates
version=1
nRows=19
nColumns=24
inDegrees=yes

Units are S.I. units (second, meters, Newtons, ...)
Angles are in degrees.

endheader
time	pelvis_tilt	pelvis_list	pelvis_rotation	pelvis_tx	pelvis_ty	pelvis_tz	hip_flexion_r	hip_adduction_r	hip_rotation_r	knee_angle_r	ankle_angle_r	subtalar_angle_r	mtp_angle_r	hip_flexion_l	hip_adduction_l	hip_rotation_l	knee_angle_l	ankle_angle_l	subtalar_angle_l	mtp_angle_l	lumbar_extension	lumbar_bending	lumbar_rotation
      6.87000000	     10.79298994	      3.64866065	     -6.41864588	      0.32453166	      0.90844092	      0.21817276	      9.90750962	     -2.27438875	      1.99647254	    -70.66353974	      4.24451445	     -9.62906147	      0.00000000	     -1.61471754	      8.01087028	     -1.17452647	    -11.86379668	     11.85363043	     -3.22406240	      0.00000000	    -27.99482148	     -4.45891231	     -4.77418917
      6.88000000	     10.69336181	      3.44121429	     -6.09707246	      0.33480835	      0.90935987	      0.21752243	     11.13950210	     -1.90663719	      1.47858534	    -69.92968509	      5.28891228	     -9.35905539	      0.00000000	     -2.55547863	      7.91298210	     -0.45511364	    -11.34262099	     12.21904063	     -3.51353454	      0.00000000	    -27.85887610	     -4.12991731	     -5.57548484
      6.89000000	     10.56286882	      3.26792810	     -5.81642757	      0.34509935	      0.91003033	      0.21696816	     12.34694441	     -1.59916269	      0.97293500	    -68.94603962	      6.23468269	     -9.05339896	      0.00000000	     -3.47054925	      7.83826300	      0.28534290	    -10.79544306	     12.56867133	     -3.94574462	      0.00000000	    -27.69499486	     -3.85976967	     -6.31238016
      6.90000000	     10.40093954	      3.09449820	     -5.52729060	      0.35539801	      0.91050643	      0.21648324	     13.49872779	     -1.30391778	      0.45516952	    -67.67808114	      6.94781966	     -8.82262838	      0.00000000	     -4.30013928	      7.71915390	      0.78275234	    -10.33852339	     13.03858233	     -3.94249708	      0.00000000	    -27.51721486	     -3.58302645	     -7.02564646
      6.91000000	     10.21869903	      3.00818350	     -5.29844155	      0.36575429	      0.91071657	      0.21610971	     14.61627815	     -1.13470120	     -0.03418650	    -66.18439996	      7.81808891	     -8.40094672	      0.00000000	     -5.12818947	      7.69304298	      1.35982501	     -9.82484614	     13.34469823	     -4.20657040	      0.00000000	    -27.30774651	     -3.43773493	     -7.63247981
      6.92000000	     10.01378718	      2.87663790	     -5.07329093	      0.37612596	      0.91074436	      0.21585007	     15.63986583	     -0.89705777	     -0.48203461	    -64.38044242	      8.27775819	     -8.41671117	      0.00000000	     -5.87242192	      7.58761378	      1.75050638	     -9.43058985	     13.86894182	     -4.23799611	      0.00000000	    -27.09641522	     -3.25057919	     -8.17919296
      6.93000000	      9.82367472	      2.80535247	     -4.85740669	      0.38655210	      0.91059993	      0.21562086	     16.55483368	     -0.75203088	     -0.91184907	    -62.32240432	      8.75771038	     -8.36777604	      0.00000000	     -6.67138198	      7.55650143	      2.39901675	     -8.96236647	     14.11289602	     -4.65292870	      0.00000000	    -26.90556718	     -3.13132758	     -8.74716594
      6.94000000	      9.58523507	      2.70503596	     -4.68571715	      0.39700857	      0.91022390	      0.21555200	     17.40582568	     -0.54268331	     -1.24199481	    -59.97442563	      8.97297848	     -8.73686111	      0.00000000	     -7.32792252	      7.46373700	      2.70269718	     -8.66523661	     14.66124132	     -4.69188628	      0.00000000	    -26.66776197	     -3.00770376	     -9.19948254
      6.95000000	      9.37985870	      2.62274896	     -4.52524559	      0.40751449	      0.90973758	      0.21555922	     18.09336851	     -0.35248790	     -1.50325397	    -57.33259082	      8.99372625	     -9.50669209	      0.00000000	     -8.01887404	      7.38609534	      3.02542737	     -8.37311890	     15.11127782	     -4.75657200	      0.00000000	    -26.47396412	     -2.91484902	     -9.60203110
      6.96000000	      9.16508542	      2.55221350	     -4.38357153	      0.41806268	      0.90907704	      0.21563478	     18.66753767	     -0.17113900	     -1.67765204	    -54.41710324	      8.92232005	    -10.49737005	      0.00000000	     -8.67406809	      7.31646829	      3.32601842	     -8.13392295	     15.59107454	     -4.83392372	      0.00000000	    -26.27203867	     -2.84371291	     -9.96594958
      6.97000000	      8.94795046	      2.49846938	     -4.25470896	      0.42865428	      0.90826418	      0.21577278	     19.11351023	     -0.00419298	     -1.74877980	    -51.22772872	      8.73273645	    -11.72242155	      0.00000000	     -9.30698684	      7.26022617	      3.61186497	     -7.93606313	     16.07049547	     -4.89999512	      0.00000000	    -26.06841133	     -2.79822640	    -10.29136479
      6.98000000	      8.72529637	      2.46574226	     -4.13107030	      0.43929200	      0.90729986	      0.21596085	     19.43367021	      0.13728699	     -1.70945713	    -47.77719202	      8.44887301	    -13.06699249	      0.00000000	     -9.91555814	      7.22103931	      3.89494795	     -7.77822942	     16.55547808	     -4.95488758	      0.00000000	    -25.85744890	     -2.78105095	    -10.59348323
      6.99000000	      8.49797767	      2.46235724	     -4.00613201	      0.44996580	      0.90619132	      0.21618149	     19.62984911	      0.23873891	     -1.54963240	    -44.08268633	      8.08279738	    -14.39233160	      0.00000000	    -10.50006339	      7.20811445	      4.17994476	     -7.65757056	     17.04233871	     -4.99512784	      0.00000000	    -25.64195831	     -2.79656621	    -10.87970183
      7.00000000	      8.26485563	      2.49394558	     -3.86994924	      0.46069422	      0.90494182	      0.21643349	     19.70747840	      0.28139364	     -1.28557066	    -40.17058818	      7.67093216	    -15.50141576	      0.00000000	    -11.06043084	      7.22464898	      4.48536096	     -7.57800812	     17.53334032	     -5.01428614	      0.00000000	    -25.41809594	     -2.84920355	    -11.16728363
      7.01000000	      8.02879141	      2.56843539	     -3.72416894	      0.47148196	      0.90355098	      0.21670556	     19.67950527	      0.24671428	     -0.93072551	    -36.08461744	      7.24620122	    -16.22300760	      0.00000000	    -11.60661793	      7.27987910	      4.80090042	     -7.52195556	     18.03648943	     -5.03018240	      0.00000000	    -25.18658491	     -2.94304222	    -11.45228041
      7.02000000	      7.79533946	      2.68890792	     -3.55450165	      0.48234368	      0.90203870	      0.21700083	     19.55702853	      0.11923860	     -0.53726171	    -31.87462592	      6.85874254	    -16.35420832	      0.00000000	    -12.15523988	      7.37204023	      5.14559415	     -7.47385485	     18.52995879	     -5.02953054	      0.00000000	    -24.95439699	     -3.08694466	    -11.77348229
      7.03000000	      7.48469555	      2.87413667	     -3.36898931	      0.49329673	      0.90028853	      0.21732302	     19.46592249	     -0.11017690	     -0.11122878	    -27.62912320	      6.62945761	    -15.74624281	      0.00000000	    -12.60705334	      7.52037653	      5.50670866	     -7.46124925	     19.04275242	     -5.01392489	      0.00000000	    -24.61665919	     -3.29279819	    -12.09056731
      7.04000000	      7.35533057	      3.06686065	     -3.11426550	      0.50430288	      0.89871131	      0.21759928	     19.08752060	     -0.39785387	      0.35819370	    -23.32434130	      6.27155496	    -14.67012090	      0.00000000	    -13.25917775	      7.66220221	      5.92780710	     -7.45882426	     19.49819789	     -4.96899549	      0.00000000	    -24.52571288	     -3.47503052	    -12.44874547
      7.05000000	      7.27378204	      3.30528751	     -2.87778412	      0.51545152	      0.89709266	      0.21794634	     18.67403358	     -0.77068169	      0.74297671	    -19.17082136	      6.28967858	    -12.60065331	      0.00000000	    -14.02558580	      7.84593664	      6.41082093	     -7.35051330	     19.77456368	     -5.09603758	      0.00000000	    -24.47352488	     -3.72090497	    -12.82981120
